{"title":"Dream House 2011 720p BDRip XviD ac3 (avi) [GREYSHADOW]","uid":7048839,"size":3921195550,"categoryP":"video","categoryS":"hd___movies","magnet":"?xt=urn:btih:84ede515b1c2ceba12f035b495d14285eef63d7b&amp;dn=Dream+House+2011+720p+BDRip+XviD+ac3+%28avi%29+%5BGREYSHADOW%5D&amp;tr=udp%3A%2F%2Ftracker.openbittorrent.com%3A80&amp;tr=udp%3A%2F%2Fopen.demonii.com%3A1337&amp;tr=udp%3A%2F%2Ftracker.coppersurfer.tk%3A6969&amp;tr=udp%3A%2F%2Fexodus.desync.com%3A6969","seeders":2,"leechers":0,"uploader":"grey.shadow","files":4,"time":1329836256,"description":"***************************************************************\n\n[IMG]http://www.hotimg.org/images/67363952943939111394.png[/IMG]\n\n***************************************************************\n\n[img]http://www.imagezon3.com/images/OXbEK.jpg[/img]\n\n***************************************************************\n\nFILM TITLE: Dream House (2011)\n\n***************************************************************\n\nGenre:  Drama | Mystery | Thriller    \n\nRated PG-13 for violence, terror, some sexuality and brief strong language\n\nRelease:  21 October 2011 (Poland) \n\nDirector: Jim Sheridan\n\nWriter: David Loucka (screenplay)\n\nStars:  Daniel Craig, Rachel Weisz and Naomi Watts\n\nCountry: USA\n\nLanguage:  English\n\nPlot:\nSoon after moving into their seemingly idyllic new home, \na family learns of a brutal crime committed against former \nresidents of the dwelling.\n\nIMDB Rating: 5.7/10 from 11,187 users   Metascore: 35/100\n &lt;a href=&quot;\nhttp://www.imdb.com/title/tt1462041/&quot; rel=&quot;nofollow&quot; target=&quot;_NEW&quot;&gt;\nhttp://www.imdb.com/title/tt1462041/&lt;/a&gt;\n\n****************************************************************\n\n[url=http://www.imagezon3.com/images/5ciTr.png][img]http://www.imagezon3.com/images/thumbs/5ciTr.png[/img][/url]\n[url=http://www.imagezon3.com/images/9e7u6.png][img]http://www.imagezon3.com/images/thumbs/9e7u6.png[/img][/url]\n[url=http://www.imagezon3.com/images/us57Q.png][img]http://www.imagezon3.com/images/thumbs/us57Q.png[/img][/url]\n[url=http://www.imagezon3.com/images/fAMQy.png][img]http://www.imagezon3.com/images/thumbs/fAMQy.png[/img][/url]\n\n****************************************************************\n\nGeneral\nComplete name                    : Dream House 2011 720p BDRip XviD ac3 (avi) [GREYSHADOW].avi\nFormat                           : AVI\nFormat/Info                      : Audio Video Interleave\nFormat profile                   : OpenDML\nFile size                        : 3.60 GiB\nDuration                         : 1h 31mn\nOverall bit rate                 : 5609 Kbps\nWriting library                  : VirtualDub build 32842/release\n\nVideo\nID                               : 0\nFormat                           : MPEG-4 Visual\nFormat profile                   : Simple@L5\nFormat settings, BVOP            : No\nFormat settings, QPel            : No\nFormat settings, GMC             : No warppoints\nFormat settings, Matrix          : Default (H.263)\nCodec ID                         : XVID\nCodec ID/Hint                    : XviD\nDuration                         : 1h 31mn\nBit rate                         : 4960 Kbps\nWidth                            : 1280 pixels\nHeight                           : 528 pixels\nDisplay aspect ratio             : 2.40:1\nFrame rate                       : 23.976 fps\nColor space                      : YUV\nChroma subsampling               : 4:2:0\nBit depth                        : 8 bits\nScan type                        : Progressive\nCompression mode                 : Lossy\nBits/(Pixel*Frame)               : 0.306\nStream size                      : 3.19 GiB (88%)\nWriting library                  : XviD 64\n\nAudio\nID                               : 1\nFormat                           : AC-3\nFormat/Info                      : Audio Coding 3\nMode extension                   : CM (complete main)\nCodec ID                         : 2000\nDuration                         : 1h 31mn\nBit rate mode                    : Constant\nBit rate                         : 640 Kbps\nChannel(s)                       : 6 channels\nChannel positions                : Front: L C R, Side: L R, LFE\nSampling rate                    : 48.0 KHz\nBit depth                        : 16 bits\nCompression mode                 : Lossy\nStream size                      : 421 MiB (11%)\nAlignment                        : Aligned on interleaves\nInterleave, duration             : 42 ms (1.00 video frame)\nInterleave, preload duration     : 512 ms\n\n****************************************************************\n\nVideo Source: Dream.House.2011.BluRay.1080p.VC-1.DTS-HD.MA5.1-CHDBits (26.9GB)\n\nThanks: chdbits.org\n\n****************************************************************\n\nI provide a small sample, so please download this to check your \ncompatibility first if you are unsure.\n\n****************************************************************","torrent":{"xt":"urn:btih:84ede515b1c2ceba12f035b495d14285eef63d7b","amp;dn":"Dream+House+2011+720p+BDRip+XviD+ac3+%28avi%29+%5BGREYSHADOW%5D","amp;tr":["udp%3A%2F%2Ftracker.openbittorrent.com%3A80","udp%3A%2F%2Fopen.demonii.com%3A1337","udp%3A%2F%2Ftracker.coppersurfer.tk%3A6969","udp%3A%2F%2Fexodus.desync.com%3A6969"],"infoHash":"84ede515b1c2ceba12f035b495d14285eef63d7b","infoHashBuffer":{"type":"Buffer","data":[132,237,229,21,177,194,206,186,18,240,53,180,149,209,66,133,238,246,61,123]},"announce":[],"urlList":[]}}